<svg width="58" height="13" viewBox="0 0 58 13" fill="none" xmlns="http://www.w3.org/2000/svg">
<path d="M1.58594 1.52344V5.42969C1.79948 5.42969 2.23958 5.4349 2.90625 5.44531C3.57812 5.45573 4.09635 5.46094 4.46094 5.46094C5.45573 5.46094 6.14844 5.29688 6.53906 4.96875C6.92969 4.63542 7.125 4.10938 7.125 3.39062C7.125 2.76042 6.9375 2.29167 6.5625 1.98438C6.1875 1.67708 5.5599 1.52344 4.67969 1.52344H1.58594ZM8.99219 12H7.42969L5.83594 8.375C5.40365 7.40104 5.1276 6.8151 5.00781 6.61719C4.6276 6.64323 4.17708 6.65625 3.65625 6.65625L1.58594 6.59375V12H0.203125V0.3125H3.89844C4.32552 0.3125 4.70312 0.322917 5.03125 0.34375C5.35938 0.364583 5.6849 0.403646 6.00781 0.460938C6.33594 0.513021 6.61979 0.588542 6.85938 0.6875C7.09896 0.78125 7.32292 0.90625 7.53125 1.0625C7.73958 1.21354 7.90625 1.39583 8.03125 1.60938C8.16146 1.82292 8.26302 2.07812 8.33594 2.375C8.40885 2.66667 8.44531 2.9974 8.44531 3.36719C8.44531 4.09635 8.2526 4.72396 7.86719 5.25C7.48698 5.77604 6.94531 6.14062 6.24219 6.34375C6.24219 6.35417 6.29427 6.44792 6.39844 6.625C6.5026 6.80208 6.625 7.02083 6.76562 7.28125C6.91146 7.53646 7.02344 7.75 7.10156 7.92188L8.99219 12ZM15.5781 5.01562C15.1979 4.55729 14.6745 4.32812 14.0078 4.32812C13.3411 4.32812 12.7969 4.5651 12.375 5.03906C11.9531 5.50781 11.7057 6.15104 11.6328 6.96875H16.1562C16.1562 6.11979 15.9635 5.46875 15.5781 5.01562ZM14.2656 12.1797C13.0208 12.1797 12.0391 11.7839 11.3203 10.9922C10.6068 10.2005 10.25 9.11719 10.25 7.74219C10.25 6.41406 10.5964 5.33854 11.2891 4.51562C11.9818 3.6875 12.8932 3.26562 14.0234 3.25C15.0859 3.25 15.9271 3.61458 16.5469 4.34375C17.1719 5.06771 17.4844 6.03646 17.4844 7.25C17.4844 7.3125 17.4818 7.42708 17.4766 7.59375C17.4766 7.76042 17.4766 7.88021 17.4766 7.95312H11.5938C11.6094 8.92708 11.8594 9.6875 12.3438 10.2344C12.8333 10.776 13.4896 11.0469 14.3125 11.0469C15.2188 11.0469 16.1276 10.8073 17.0391 10.3281L17.2422 11.3828C16.3724 11.9141 15.3802 12.1797 14.2656 12.1797ZM30.1797 12V7.53906C30.1797 7.1224 30.1693 6.77344 30.1484 6.49219C30.1328 6.21094 30.0911 5.92448 30.0234 5.63281C29.9609 5.34115 29.8698 5.11198 29.75 4.94531C29.6354 4.77344 29.474 4.63542 29.2656 4.53125C29.0573 4.42188 28.8073 4.36719 28.5156 4.36719C27.9427 4.36719 27.4531 4.52083 27.0469 4.82812C26.6458 5.13542 26.3594 5.56771 26.1875 6.125C26.1406 6.5 26.1172 6.90104 26.1172 7.32812V12H24.8125V7.39844C24.8125 7.01302 24.7995 6.67969 24.7734 6.39844C24.7474 6.11198 24.6979 5.83594 24.625 5.57031C24.5521 5.29948 24.4531 5.08073 24.3281 4.91406C24.2083 4.7474 24.0469 4.61458 23.8438 4.51562C23.6406 4.41667 23.3984 4.36719 23.1172 4.36719C22.4922 4.36719 21.9661 4.52604 21.5391 4.84375C21.1172 5.16146 20.8333 5.58333 20.6875 6.10938C20.6406 6.51042 20.6172 6.94531 20.6172 7.41406V12H19.3125C19.3021 6.64062 19.2969 3.78385 19.2969 3.42969H20.3906L20.5547 4.65625C20.8151 4.26042 21.1849 3.92708 21.6641 3.65625C22.1432 3.38542 22.6875 3.25 23.2969 3.25C23.6146 3.25 23.9062 3.28385 24.1719 3.35156C24.4427 3.41406 24.6667 3.49479 24.8438 3.59375C25.026 3.69271 25.1875 3.8125 25.3281 3.95312C25.4688 4.08854 25.5781 4.22396 25.6562 4.35938C25.7344 4.48958 25.7995 4.6276 25.8516 4.77344C26.4766 3.75781 27.4323 3.25 28.7188 3.25C29.6719 3.25 30.3698 3.52344 30.8125 4.07031C31.2604 4.61198 31.4844 5.41667 31.4844 6.48438V12H30.1797ZM34.1094 7.73438C34.1094 8.75 34.3333 9.5651 34.7812 10.1797C35.2344 10.7891 35.8932 11.0938 36.7578 11.0938C37.612 11.0938 38.2552 10.7891 38.6875 10.1797C39.125 9.57031 39.3438 8.75 39.3438 7.71875C39.3438 6.67188 39.1276 5.84896 38.6953 5.25C38.2682 4.64583 37.6146 4.34375 36.7344 4.34375C35.8802 4.34375 35.2292 4.65104 34.7812 5.26562C34.3333 5.88021 34.1094 6.70312 34.1094 7.73438ZM40.6953 7.71094C40.6953 9.03906 40.3411 10.1172 39.6328 10.9453C38.9245 11.7682 37.9453 12.1797 36.6953 12.1797C35.4922 12.1797 34.5339 11.763 33.8203 10.9297C33.112 10.0964 32.7578 9.02604 32.7578 7.71875C32.7578 6.38542 33.1146 5.30729 33.8281 4.48438C34.5417 3.66146 35.5208 3.25 36.7656 3.25C37.9896 3.25 38.9505 3.66406 39.6484 4.49219C40.3464 5.3151 40.6953 6.38802 40.6953 7.71094ZM44.6484 12L41.3281 3.42969H42.7266L44.6172 8.52344C44.6172 8.52344 44.8776 9.2474 45.3984 10.6953C45.5755 10.138 45.8203 9.41927 46.1328 8.53906C46.5286 7.42969 47.1432 5.72656 47.9766 3.42969H49.3672L46.0703 12H44.6484ZM55.3438 5.01562C54.9635 4.55729 54.4401 4.32812 53.7734 4.32812C53.1068 4.32812 52.5625 4.5651 52.1406 5.03906C51.7188 5.50781 51.4714 6.15104 51.3984 6.96875H55.9219C55.9219 6.11979 55.7292 5.46875 55.3438 5.01562ZM54.0312 12.1797C52.7865 12.1797 51.8047 11.7839 51.0859 10.9922C50.3724 10.2005 50.0156 9.11719 50.0156 7.74219C50.0156 6.41406 50.362 5.33854 51.0547 4.51562C51.7474 3.6875 52.6589 3.26562 53.7891 3.25C54.8516 3.25 55.6927 3.61458 56.3125 4.34375C56.9375 5.06771 57.25 6.03646 57.25 7.25C57.25 7.3125 57.2474 7.42708 57.2422 7.59375C57.2422 7.76042 57.2422 7.88021 57.2422 7.95312H51.3594C51.375 8.92708 51.625 9.6875 52.1094 10.2344C52.599 10.776 53.2552 11.0469 54.0781 11.0469C54.9844 11.0469 55.8932 10.8073 56.8047 10.3281L57.0078 11.3828C56.138 11.9141 55.1458 12.1797 54.0312 12.1797Z" fill="#E86961"/>
</svg>
