<svg width="89" height="16" viewBox="0 0 89 16" fill="none" xmlns="http://www.w3.org/2000/svg">
<path d="M9.25781 0.445312V7.94531C9.25781 9.27344 8.89323 10.3099 8.16406 11.0547C7.4401 11.7995 6.33594 12.1719 4.85156 12.1719C3.36719 12.1719 2.27083 11.7995 1.5625 11.0547C0.854167 10.3099 0.5 9.26823 0.5 7.92969V0.445312H1.85938V7.95312C1.85938 9 2.10677 9.77083 2.60156 10.2656C3.09635 10.7604 3.86198 11.0078 4.89844 11.0078C5.90885 11.0078 6.66146 10.7578 7.15625 10.2578C7.65625 9.75781 7.90625 8.98698 7.90625 7.94531V0.445312H9.25781ZM11.6328 15.7188V3.42969H12.7812L12.9062 4.59375C13.6562 3.69792 14.5573 3.25 15.6094 3.25C16.3906 3.25 17.0521 3.44531 17.5938 3.83594C18.1354 4.22656 18.5339 4.75521 18.7891 5.42188C19.0495 6.08854 19.1797 6.86719 19.1797 7.75781C19.1797 8.61198 19.0391 9.3724 18.7578 10.0391C18.4766 10.7005 18.0625 11.224 17.5156 11.6094C16.974 11.9896 16.3385 12.1797 15.6094 12.1797C15.0573 12.1797 14.5391 12.0573 14.0547 11.8125C13.5703 11.5625 13.1823 11.2344 12.8906 10.8281C12.9219 11.3906 12.9375 11.9375 12.9375 12.4688V15.6328L11.6328 15.7188ZM15.4297 11.0781C15.8255 11.0781 16.1797 10.9896 16.4922 10.8125C16.8047 10.6302 17.0573 10.3828 17.25 10.0703C17.4427 9.75781 17.5885 9.40365 17.6875 9.00781C17.7865 8.60677 17.8359 8.17448 17.8359 7.71094C17.8359 6.73177 17.6302 5.92969 17.2188 5.30469C16.8073 4.67448 16.2057 4.35938 15.4141 4.35938C13.7578 4.35938 12.9297 5.42969 12.9297 7.57031C12.9297 8.73177 13.1224 9.60677 13.5078 10.1953C13.8984 10.7839 14.5391 11.0781 15.4297 11.0781ZM23.3281 12.1562C22.4948 12.1562 21.9036 11.9323 21.5547 11.4844C21.2109 11.0365 21.0391 10.2578 21.0391 9.14844V0.101562L22.3359 0.0234375V8.63281C22.3359 8.98698 22.3385 9.27083 22.3438 9.48438C22.3542 9.69792 22.375 9.90885 22.4062 10.1172C22.4375 10.3203 22.4792 10.474 22.5312 10.5781C22.5833 10.6823 22.6589 10.7786 22.7578 10.8672C22.8568 10.9505 22.974 11.0078 23.1094 11.0391C23.25 11.0651 23.4219 11.0781 23.625 11.0781C23.7917 11.0781 24.1198 11.0469 24.6094 10.9844L24.6797 12.0234C24.1432 12.112 23.6927 12.1562 23.3281 12.1562ZM26.4297 7.73438C26.4297 8.75 26.6536 9.5651 27.1016 10.1797C27.5547 10.7891 28.2135 11.0938 29.0781 11.0938C29.9323 11.0938 30.5755 10.7891 31.0078 10.1797C31.4453 9.57031 31.6641 8.75 31.6641 7.71875C31.6641 6.67188 31.4479 5.84896 31.0156 5.25C30.5885 4.64583 29.9349 4.34375 29.0547 4.34375C28.2005 4.34375 27.5495 4.65104 27.1016 5.26562C26.6536 5.88021 26.4297 6.70312 26.4297 7.73438ZM33.0156 7.71094C33.0156 9.03906 32.6615 10.1172 31.9531 10.9453C31.2448 11.7682 30.2656 12.1797 29.0156 12.1797C27.8125 12.1797 26.8542 11.763 26.1406 10.9297C25.4323 10.0964 25.0781 9.02604 25.0781 7.71875C25.0781 6.38542 25.4349 5.30729 26.1484 4.48438C26.862 3.66146 27.8411 3.25 29.0859 3.25C30.3099 3.25 31.2708 3.66406 31.9688 4.49219C32.6667 5.3151 33.0156 6.38802 33.0156 7.71094ZM37.2188 11.125C37.8385 11.125 38.3828 10.9557 38.8516 10.6172C39.3255 10.2734 39.6302 9.8125 39.7656 9.23438V7.78906C39.7396 7.78906 39.5807 7.80208 39.2891 7.82812C39.0026 7.85417 38.8151 7.86979 38.7266 7.875C37.5964 7.97396 36.8073 8.15885 36.3594 8.42969C35.9167 8.70052 35.6953 9.13542 35.6953 9.73438C35.6953 10.1927 35.8307 10.5391 36.1016 10.7734C36.3724 11.0078 36.7448 11.125 37.2188 11.125ZM40.0547 12C39.9766 11.6667 39.901 11.3073 39.8281 10.9219C39.3542 11.3958 38.9089 11.724 38.4922 11.9062C38.0755 12.0885 37.5859 12.1797 37.0234 12.1797C36.2214 12.1797 35.5755 11.9714 35.0859 11.5547C34.6016 11.1328 34.3594 10.5286 34.3594 9.74219C34.3594 8.86719 34.6901 8.21875 35.3516 7.79688C36.0182 7.375 36.9766 7.11198 38.2266 7.00781C38.3984 6.99219 38.6562 6.97135 39 6.94531C39.349 6.91406 39.6094 6.89062 39.7812 6.875V6.11719C39.7812 5.51302 39.6406 5.0651 39.3594 4.77344C39.0781 4.48177 38.6354 4.33594 38.0312 4.33594C37.1875 4.33594 36.3359 4.54427 35.4766 4.96094C35.4505 4.89844 35.3828 4.71875 35.2734 4.42188C35.1641 4.11979 35.1068 3.96354 35.1016 3.95312C35.4818 3.73958 35.9323 3.57031 36.4531 3.44531C36.9792 3.3151 37.513 3.25 38.0547 3.25C39.1224 3.25 39.8906 3.48438 40.3594 3.95312C40.8333 4.41667 41.0703 5.20833 41.0703 6.32812V12H40.0547ZM46.6641 11.0547C47.5234 11.0547 48.1615 10.7786 48.5781 10.2266C49 9.67448 49.2109 8.88542 49.2109 7.85938C49.2109 6.70312 49.0078 5.83333 48.6016 5.25C48.2005 4.66146 47.5495 4.36719 46.6484 4.36719C46.2474 4.36719 45.8932 4.45312 45.5859 4.625C45.2786 4.79688 45.0312 5.03646 44.8438 5.34375C44.6562 5.65104 44.513 6.00521 44.4141 6.40625C44.3203 6.80208 44.2734 7.23698 44.2734 7.71094C44.2734 8.3776 44.3542 8.95573 44.5156 9.44531C44.6823 9.9349 44.9479 10.3255 45.3125 10.6172C45.6771 10.9089 46.1276 11.0547 46.6641 11.0547ZM49.2344 10.7578C48.9531 11.1901 48.5781 11.5339 48.1094 11.7891C47.6406 12.0443 47.1172 12.1719 46.5391 12.1719C45.4089 12.1719 44.5234 11.7708 43.8828 10.9688C43.2422 10.1615 42.9219 9.0651 42.9219 7.67969C42.9219 6.35677 43.2474 5.28906 43.8984 4.47656C44.5495 3.65885 45.4219 3.25 46.5156 3.25C47.0833 3.25 47.6172 3.375 48.1172 3.625C48.6224 3.86979 49 4.20052 49.25 4.61719L49.2266 3.875V0.101562L50.5156 0.0234375V12H49.4062L49.2344 10.7578ZM66.1562 12H64.625L58.625 2.90625L58.2344 2.36719C58.276 3.46094 58.2969 4.4375 58.2969 5.29688V12H57.0312V0.445312H58.5391L64.5547 9.53906L64.9531 10.0781C64.9167 8.41667 64.8984 7.45573 64.8984 7.19531V0.445312H66.1562V12ZM73.5703 5.01562C73.1901 4.55729 72.6667 4.32812 72 4.32812C71.3333 4.32812 70.7891 4.5651 70.3672 5.03906C69.9453 5.50781 69.6979 6.15104 69.625 6.96875H74.1484C74.1484 6.11979 73.9557 5.46875 73.5703 5.01562ZM72.2578 12.1797C71.013 12.1797 70.0312 11.7839 69.3125 10.9922C68.599 10.2005 68.2422 9.11719 68.2422 7.74219C68.2422 6.41406 68.5885 5.33854 69.2812 4.51562C69.974 3.6875 70.8854 3.26562 72.0156 3.25C73.0781 3.25 73.9193 3.61458 74.5391 4.34375C75.1641 5.06771 75.4766 6.03646 75.4766 7.25C75.4766 7.3125 75.474 7.42708 75.4688 7.59375C75.4688 7.76042 75.4688 7.88021 75.4688 7.95312H69.5859C69.6016 8.92708 69.8516 9.6875 70.3359 10.2344C70.8255 10.776 71.4818 11.0469 72.3047 11.0469C73.2109 11.0469 74.1198 10.8073 75.0312 10.3281L75.2344 11.3828C74.3646 11.9141 73.3724 12.1797 72.2578 12.1797ZM84.6875 12C83.4844 8.15625 82.7396 5.76302 82.4531 4.82031C82.2917 5.39323 82.1068 6.01302 81.8984 6.67969C81.6901 7.34635 81.5078 7.91927 81.3516 8.39844C81.1953 8.8776 80.9922 9.4974 80.7422 10.2578C80.4922 11.0182 80.3021 11.599 80.1719 12H78.7656L76.3203 3.42969H77.6719L79.5078 10.4453C79.763 9.61198 80.513 7.27344 81.7578 3.42969H83.2344C84.474 7.35677 85.2031 9.6875 85.4219 10.4219L87.2344 3.42969H88.5703L86.1016 12H84.6875Z" fill="#2E2E2E"/>
</svg>
